<svg width="38" height="38" viewBox="0 0 38 38" fill="none" xmlns="http://www.w3.org/2000/svg">
<rect width="38" height="38" rx="19" fill="url(#paint0_linear_1_167)"/>
<path d="M24.2872 18.8182C24.2872 20.1664 24.0316 21.3134 23.5205 22.2592C23.0134 23.205 22.3211 23.9274 21.4438 24.4265C20.5704 24.9215 19.5884 25.169 18.4977 25.169C17.399 25.169 16.413 24.9195 15.5396 24.4205C14.6663 23.9214 13.9761 23.199 13.469 22.2532C12.9619 21.3074 12.7083 20.1624 12.7083 18.8182C12.7083 17.4699 12.9619 16.3229 13.469 15.3771C13.9761 14.4313 14.6663 13.7109 15.5396 13.2159C16.413 12.7169 17.399 12.4673 18.4977 12.4673C19.5884 12.4673 20.5704 12.7169 21.4438 13.2159C22.3211 13.7109 23.0134 14.4313 23.5205 15.3771C24.0316 16.3229 24.2872 17.4699 24.2872 18.8182ZM21.6369 18.8182C21.6369 17.9448 21.5061 17.2083 21.2445 16.6087C20.987 16.009 20.6227 15.5542 20.1519 15.2443C19.681 14.9344 19.1296 14.7795 18.4977 14.7795C17.8659 14.7795 17.3145 14.9344 16.8436 15.2443C16.3727 15.5542 16.0065 16.009 15.7449 16.6087C15.4873 17.2083 15.3585 17.9448 15.3585 18.8182C15.3585 19.6915 15.4873 20.428 15.7449 21.0277C16.0065 21.6274 16.3727 22.0821 16.8436 22.392C17.3145 22.7019 17.8659 22.8569 18.4977 22.8569C19.1296 22.8569 19.681 22.7019 20.1519 22.392C20.6227 22.0821 20.987 21.6274 21.2445 21.0277C21.5061 20.428 21.6369 19.6915 21.6369 18.8182Z" fill="#C18D52"/>
<defs>
<linearGradient id="paint0_linear_1_167" x1="-13.8182" y1="19" x2="158.909" y2="19" gradientUnits="userSpaceOnUse">
<stop stop-color="#EEE8B2"/>
<stop offset="0.4" stop-color="#96CDB0"/>
<stop offset="1" stop-color="#081B1B"/>
</linearGradient>
</defs>
</svg>
